<?xml version="1.0" standalone="no"?>
<!DOCTYPE svg PUBLIC "-//W3C//DTD SVG 20010904//EN"
 "http://www.w3.org/TR/2001/REC-SVG-20010904/DTD/svg10.dtd">
<svg version="1.0" xmlns="http://www.w3.org/2000/svg"
 width="300.000000pt" height="46.000000pt" viewBox="0 0 300.000000 46.000000"
 preserveAspectRatio="xMidYMid meet">
<metadata>
Created by potrace 1.10, written by Peter Selinger 2001-2011
</metadata>
<g transform="translate(0.000000,46.000000) scale(0.100000,-0.100000)"
fill="#000000" stroke="none">
<path d="M450 450 c-30 -5 -32 -6 -12 -12 22 -6 22 -7 22 -212 0 -205 0 -207
-22 -215 -16 -6 -6 -8 37 -8 36 0 52 3 40 7 -19 7 -20 18 -25 226 l-5 219 -35
-5z"/>
<path d="M2715 450 c-33 -4 -36 -6 -17 -12 22 -6 22 -7 22 -212 0 -205 0 -207
-22 -215 -16 -6 -5 -8 37 -7 33 0 52 2 43 4 -16 3 -18 17 -18 122 l0 118 31
26 c38 32 90 35 119 6 18 -18 20 -33 20 -139 0 -91 3 -121 15 -131 19 -16 49
-9 51 13 1 12 1 13 -3 2 -2 -8 -9 -15 -14 -15 -5 0 -9 52 -9 119 0 137 -12
163 -80 181 -42 11 -99 -4 -116 -31 -6 -9 -11 22 -14 81 l-5 95 -40 -5z"/>
<path d="M151 425 c-47 -15 -104 -63 -128 -109 -18 -35 -20 -148 -3 -191 43
-111 200 -162 307 -100 23 14 50 40 59 56 22 44 10 47 -16 4 -44 -71 -164 -99
-236 -54 -82 50 -120 199 -74 293 30 63 70 89 142 94 58 4 59 4 103 -40 26
-26 48 -59 51 -77 7 -33 21 -41 30 -16 18 46 -43 117 -120 140 -58 18 -58 18
-115 0z"/>
<path d="M1667 338 c-6 -23 -13 -28 -40 -29 -29 0 -30 -1 -9 -9 21 -9 22 -14
22 -135 0 -70 5 -135 10 -146 15 -27 75 -26 90 1 6 11 7 20 1 20 -5 0 -11 -7
-15 -15 -3 -8 -15 -15 -26 -15 -19 0 -20 6 -20 144 l0 145 38 4 37 4 -37 1
c-32 2 -37 5 -40 30 l-3 27 -8 -27z"/>
<path d="M656 310 c-64 -19 -108 -86 -108 -163 0 -55 19 -88 72 -124 59 -41
172 -25 200 27 7 14 7 20 0 20 -5 0 -10 -5 -10 -10 0 -6 -15 -19 -32 -30 -80
-48 -167 -5 -188 93 -10 49 -6 77 15 130 20 48 111 62 150 22 47 -46 35 -55
-67 -55 -68 0 -89 -3 -81 -11 14 -14 198 -8 214 8 22 22 -77 105 -123 102 -7
0 -26 -5 -42 -9z"/>
<path d="M920 302 c-37 -18 -55 -62 -26 -62 9 0 16 8 16 20 0 42 88 56 114 18
22 -31 22 -177 1 -218 -39 -76 -135 -65 -135 16 0 52 36 84 97 85 35 0 42 3
28 8 -43 18 -135 -12 -155 -48 -33 -62 9 -121 84 -121 44 0 66 12 84 45 8 14
12 16 12 5 1 -25 14 -38 45 -45 24 -5 27 -4 13 5 -15 9 -18 27 -18 123 0 126
-9 149 -66 173 -43 18 -52 18 -94 -4z"/>
<path d="M1251 302 c-19 -9 -37 -23 -39 -31 -3 -10 5 -7 23 7 32 25 82 29 111
8 17 -13 20 -31 24 -148 4 -118 7 -133 23 -136 22 -5 47 15 46 37 0 10 -3 8
-10 -7 -18 -45 -27 -10 -28 110 -2 132 -6 143 -58 165 -42 17 -51 17 -92 -5z"/>
<path d="M1834 301 c-83 -38 -117 -137 -75 -220 56 -109 205 -109 262 -1 68
126 -62 278 -187 221z m106 -21 c50 -36 77 -148 49 -203 -24 -46 -52 -67 -89
-67 -46 0 -78 23 -101 74 -60 133 38 269 141 196z"/>
<path d="M2495 308 c-66 -24 -105 -81 -105 -155 0 -92 63 -153 158 -153 46 0
57 4 90 34 20 19 34 37 31 41 -4 3 -22 -10 -42 -30 -29 -29 -42 -35 -78 -35
-77 1 -119 58 -119 161 0 56 3 64 34 95 26 26 42 34 69 34 41 0 97 -41 97 -71
0 -23 18 -25 26 -4 7 18 -18 60 -44 74 -30 16 -86 21 -117 9z"/>
<path d="M1160 300 c-26 -4 -31 -7 -17 -12 15 -7 17 -23 17 -142 0 -120 -2
-135 -17 -138 -10 -2 9 -4 42 -4 43 -1 54 1 37 7 -22 8 -23 11 -21 149 1 78 0
142 -2 143 -2 2 -20 0 -39 -3z"/>
<path d="M2080 300 c-30 -5 -32 -6 -12 -12 21 -6 22 -11 22 -116 0 -61 3 -118
6 -127 22 -55 150 -60 191 -6 11 14 12 14 13 -1 0 -19 29 -38 56 -38 16 0 16
1 -2 14 -17 13 -19 26 -17 156 1 123 0 141 -13 136 -9 -3 -28 -6 -42 -7 -26 0
-26 -1 -4 -9 21 -9 22 -15 22 -114 0 -103 0 -105 -31 -135 -23 -24 -39 -31
-68 -31 -65 0 -75 21 -81 169 l-5 126 -35 -5z"/>
</g>
</svg>
